<?xml version="1.0" encoding="UTF-8"?><!DOCTYPE svg PUBLIC "-//W3C//DTD SVG 1.1//EN" "http://www.w3.org/Graphics/SVG/1.1/DTD/svg11.dtd"><svg xmlns="http://www.w3.org/2000/svg" xmlns:xlink="http://www.w3.org/1999/xlink"><symbol id="arrow-down" viewBox="0 0 100 100">
<path d="M96.2,44L96.2,44c-1.1-0.9-2.7-0.9-3.7,0.1L52.5,89.5V3.6C52.5,2.1,51.5,1,50,1c-1.4,0-2.5,1.1-2.5,2.5v86L7.5,44.3
	c-0.5-0.5-1.1-0.9-1.8-0.9c-0.7,0-1.4,0.2-1.8,0.7C3.3,44.5,3,45.2,3,45.9c0,0.7,0.2,1.4,0.7,1.8l44.4,50.5c0.1,0.1,0.2,0.2,0.4,0.3
	l0.2,0.2l0.1,0.1C49.3,99,49.6,99,50,99c0.2,0,0.3,0,0.5-0.1c0.1,0,0.1,0,0.2,0c0.3,0,0.7-0.2,0.9-0.4c0.1-0.1,0.2-0.2,0.4-0.3
	l44.4-50.5C97.3,46.6,97.2,45,96.2,44z"/>
</symbol><symbol id="arrow-left" viewBox="0 0 100 100">
<path d="M96.4,47.5h-86L55.7,7.5c0.6-0.5,0.9-1.1,0.9-1.8c0-0.7-0.2-1.4-0.7-1.8c-0.5-0.6-1.1-0.9-1.8-0.9c-0.7,0-1.4,0.2-1.8,0.7
	L1.8,48.1c-0.1,0.1-0.2,0.2-0.3,0.4l-0.3,0.3l-0.1,0.4C1,49.4,1,49.7,1,50c0,0.2,0,0.3,0.1,0.5c0,0.1,0,0.1,0,0.2
	c0,0.3,0.2,0.7,0.4,0.9c0.1,0.1,0.2,0.2,0.3,0.4l50.5,44.4c0.5,0.4,1.2,0.7,1.8,0.7c0.7,0,1.4-0.3,1.9-0.9l0,0
	c0.9-1,0.8-2.6-0.2-3.6L10.4,52.6h86c1.4,0,2.6-1.1,2.6-2.6C99,48.7,97.8,47.5,96.4,47.5z"/>
</symbol><symbol id="arrow-right" viewBox="0 0 100 100">
<path d="M98.9,49.3c0-0.3-0.2-0.7-0.4-0.9c-0.1-0.1-0.2-0.2-0.3-0.4L47.7,3.7c-1-0.9-2.6-0.8-3.6,0.2c-0.9,1-0.8,2.6,0.2,3.6
	l45.3,39.9h-86C2.1,47.5,1,48.6,1,50s1.1,2.5,2.5,2.5h86L44.3,92.5C43.2,93.4,43.1,95,44,96c0.4,0.5,0.9,0.8,1.6,0.9
	c0.1,0,0.2,0,0.3,0c0.6,0,1.3-0.2,1.8-0.7l50.5-44.4c0.1-0.1,0.2-0.2,0.3-0.3l0.2-0.3l0.1-0.1C99,50.7,99,50.4,99,50
	C99,49.7,99,49.5,98.9,49.3z"/>
</symbol><symbol id="arrow-up" viewBox="0 0 100 100">
<path d="M96.4,52.3L51.9,1.8c-0.1-0.1-0.2-0.2-0.4-0.3l-0.2-0.2l-0.1-0.1C51,1.2,50.5,1,50,1c-0.2,0-0.3,0-0.5,0.1
	c-0.1,0-0.1,0-0.2,0c-0.3,0-0.7,0.2-0.9,0.4c-0.1,0.1-0.2,0.2-0.4,0.3L3.6,52.3c-0.9,1-0.8,2.6,0.2,3.6c1,0.9,2.6,0.8,3.6-0.2
	l40-45.3v86c0,1.4,1.1,2.6,2.6,2.6c1.4,0,2.6-1.1,2.6-2.6v-86l39.9,45.3c0.5,0.5,1.1,0.8,1.8,0.9c0.6,0,1.3-0.2,1.8-0.6
	c0.5-0.4,0.9-0.9,1-1.6C97.1,53.7,96.9,52.9,96.4,52.3z"/>
</symbol><symbol id="caret-down" viewBox="0 0 100 100">
<g>
	<path d="M97.2,24.9c-1.2-1.2-2.6-1.8-4.3-1.8H7.1c-1.7,0-3.1,0.6-4.3,1.8C1.6,26.1,1,27.5,1,29.2s0.6,3.1,1.8,4.3l42.9,42.9
		c1.2,1.2,2.6,1.8,4.3,1.8s3.1-0.6,4.3-1.8l42.9-42.9c1.2-1.2,1.8-2.6,1.8-4.3C99,27.5,98.4,26.1,97.2,24.9z"/>
</g>
</symbol><symbol id="caret-left" viewBox="0 0 100 100">
<g>
	<path d="M76.3,97.2c1.2-1.2,1.8-2.6,1.8-4.3V7.1c0-1.7-0.6-3.1-1.8-4.3S73.7,1,72,1s-3.1,0.6-4.3,1.8L24.8,45.7
		C23.6,46.9,23,48.3,23,50s0.6,3.1,1.8,4.3l42.9,42.9c1.2,1.2,2.6,1.8,4.3,1.8C73.7,99,75.1,98.4,76.3,97.2z"/>
</g>
</symbol><symbol id="caret-right" viewBox="0 0 100 100">
<g>
	<path d="M29.1,99c1.7,0,3.1-0.6,4.3-1.8l42.9-42.9c1.2-1.2,1.8-2.6,1.8-4.3s-0.6-3.1-1.8-4.3L33.4,2.8C32.2,1.6,30.8,1,29.1,1
		c-1.7,0-3.1,0.6-4.3,1.8C23.6,4,23,5.5,23,7.1v85.7c0,1.7,0.6,3.1,1.8,4.3C26,98.4,27.5,99,29.1,99z"/>
</g>
</symbol><symbol id="caret-up" viewBox="0 0 100 100">
<g>
	<path d="M99,72.1c0-1.7-0.6-3.1-1.8-4.3L54.3,24.9c-1.2-1.2-2.6-1.8-4.3-1.8s-3.1,0.6-4.3,1.8L2.8,67.8C1.6,69,1,70.4,1,72.1
		s0.6,3.1,1.8,4.3c1.2,1.2,2.6,1.8,4.3,1.8h85.7c1.7,0,3.1-0.6,4.3-1.8C98.4,75.2,99,73.7,99,72.1z"/>
</g>
</symbol><symbol id="chevron-down" viewBox="0 0 100 100">
<path d="M97,31.7L56.4,79.3c-3.4,4-9.5,4-12.9,0L3,31.7c-3-3.6-2.6-8.9,1-11.9c3.6-3,8.9-2.6,11.9,1L50,60.8l34.1-40.1
	c3-3.6,8.4-4,11.9-1S100,28.1,97,31.7z"/>
</symbol><symbol id="chevron-left" viewBox="0 0 100 100">
<path d="M68.3,3L20.7,43.6c-4,3.4-4,9.5,0,12.9L68.3,97c3.6,3,8.9,2.6,11.9-1c3-3.6,2.6-8.9-1-11.9L39.2,50l40.1-34.1
	c3.6-3,4-8.4,1-11.9S71.9,0,68.3,3z"/>
</symbol><symbol id="chevron-right" viewBox="0 0 100 100">
<path d="M31.7,3l47.7,40.5c4,3.4,4,9.5,0,12.9L31.7,97c-3.6,3-8.9,2.6-11.9-1c-3-3.6-2.6-8.9,1-11.9L60.8,50L20.7,15.9
	c-3.6-3-4-8.4-1-11.9S28.1,0,31.7,3z"/>
</symbol><symbol id="chevron-up" viewBox="0 0 100 100">
<path d="M97,68.3L56.4,20.7c-3.4-4-9.5-4-12.9,0L3,68.3c-3,3.6-2.6,8.9,1,11.9c3.6,3,8.9,2.6,11.9-1L50,39.2l34.1,40.1
	c3,3.6,8.4,4,11.9,1S100,71.9,97,68.3z"/>
</symbol><symbol id="close-fill" viewBox="0 0 100 100">
<path d="M84.6,15.4C75.5,6.2,63.2,1.1,50,1.1C37,1,24.7,6.1,15.4,15.4C6.2,24.5,1.1,36.8,1.1,50C1,63,6.3,75.4,15.4,84.6
  c9.1,9.2,21.4,14.3,34.6,14.3c13,0.1,25.3-5,34.6-14.3C93.9,75.4,99,63.1,98.9,50C99,37,93.8,24.6,84.6,15.4z M67.3,61.5
  c1.7,1.7,1.7,4.2,0,5.8c-1.6,1.6-4.2,1.6-5.8,0L50,55.8L38.5,67.3c-1.6,1.6-4.2,1.6-5.8,0s-1.6-4.2,0-5.8L44.2,50L32.7,38.5
  c-1.6-1.6-1.6-4.2,0-5.8c1.6-1.6,4.2-1.6,5.8,0L50,44.2l11.5-11.5c1.6-1.6,4.2-1.6,5.8,0c1.7,1.6,1.7,4.1,0,5.8L55.8,50L67.3,61.5z"/>
</symbol><symbol id="close-outline" viewBox="0 0 100 100">
<g>
	<path d="M84.6,15.4C75.5,6.2,63.2,1.1,50,1.1C36.9,1,24.5,6.2,15.4,15.4C6.3,24.6,1.1,36.8,1.1,50C1,63.1,6.1,75.4,15.4,84.6
		C24.6,93.9,36.9,99,50,98.9c13.1,0.1,25.5-5.1,34.6-14.3c9.1-9.2,14.3-21.4,14.3-34.6C99,36.9,93.9,24.6,84.6,15.4z M78.8,79
		c-7.7,7.7-18,12-28.9,12C39,91,28.7,86.7,21,79S9,61,9,50.1c-0.1-11,4.2-21.2,12-28.9c7.7-7.7,18-12,28.9-12
		c11-0.1,21.2,4.2,28.9,12c7.7,7.7,12,18,12,28.9C90.9,61,86.6,71.3,78.8,79z"/>
	<path d="M67.3,32.7c-1.6-1.6-4.2-1.6-5.8,0L50,44.2L38.5,32.7c-1.6-1.6-4.2-1.6-5.8,0c-1.6,1.6-1.6,4.2,0,5.8L44.2,50L32.7,61.5
		c-1.6,1.6-1.6,4.2,0,5.8c1.6,1.6,4.2,1.6,5.8,0L50,55.8l11.5,11.5c1.6,1.6,4.2,1.6,5.8,0c1.6-1.6,1.6-4.2,0-5.8L55.8,50l11.5-11.5
		C69,36.8,69,34.3,67.3,32.7z"/>
</g>
</symbol><symbol id="dl" viewBox="0 0 100 100">
<g transform="translate(0,-952.36218)">
	<path d="M50,1038.7c-1.1,0-2.4-0.5-3.3-1.3l-26.9-25.3c-1.5-1.7-2.2-5-0.4-6.9c1.8-1.9,5.2-1.8,6.9,0l18.9,17.8v-65
		c0-2.6,2.1-4.7,4.7-4.7s4.7,2.1,4.7,4.7v65l18.9-17.8c1.6-1.6,5.1-1.9,6.9,0c1.8,1.9,1.2,5.3-0.4,6.9l-26.9,25.3
		C52.3,1038.3,51.3,1038.7,50,1038.7z"/>
	<path d="M18.4,1041.9c-2.6,0-4.7,2.1-4.7,4.7s2.1,4.7,4.7,4.7h63.2c2.6,0,4.7-2.1,4.7-4.7s-2.1-4.7-4.7-4.7H18.4z"/>
</g>
</symbol><symbol id="doc-pdf" viewBox="0 0 100 100">
<g>
	<path d="M90.7,26.8c-0.1-0.2-0.3-0.5-0.4-0.7L65.7,1.6c-0.2-0.2-0.4-0.3-0.7-0.4C64.8,1.1,64.6,1,64.3,1H11.2c-1.1,0-2,0.9-2,2v94
		c0,1.1,0.9,2,2,2h77.6c1.1,0,2-0.9,2-2V27.5C90.8,27.3,90.8,27,90.7,26.8z M66.3,8l17.5,17.5H66.3V8z M13.2,94.9V5.1h49v22.5
		c0,1.1,0.9,2,2,2h22.5v65.3H13.2z"/>
	<path d="M69.3,51.8c-5.9-0.2-11.4,0.6-16.4,2.2c-3.5-1.9-7.1-4.4-10.6-7.6c-0.7-6.2-2.1-11.7-3.5-15.6c-0.7-2-2.2-3.2-4.1-3.4
		c-2-0.2-4.2,0.9-5.4,2.8c-1.3,2-1.3,4.4,0,6.6l0,0c2.8,4.6,5.8,8.3,9,11.5c0.3,4.2,0.3,8.6-0.4,12.9c-5.3,3.5-9.4,7.4-11.9,10.5
		c-1.5,1.8-1.9,3.9-1.1,5.7c0.7,1.9,2.6,3.2,4.7,3.5c0.3,0,0.5,0,0.7,0c2,0,3.8-0.9,5-2.6c3.3-4.5,5.2-9.6,6.3-14.8
		c3.2-2,6.8-3.8,10.8-5.2c6.4,3.2,12.4,4.5,16.8,5c2.1,0.2,3.9-0.5,5.1-2.1c1.2-1.7,1.4-4.1,0.4-6.1S71.7,51.9,69.3,51.8z
		 M32.8,34.5L32.8,34.5c-0.6-1-0.4-1.8-0.1-2.3c0.4-0.6,1.1-0.9,1.5-0.9c0.3,0,0.5,0.3,0.7,0.8c0.8,2.3,1.7,5.3,2.4,8.8
		C35.8,39,34.3,36.9,32.8,34.5z M32.1,75.9c-0.6,0.9-1.4,1-2,0.9c-0.7-0.1-1.3-0.5-1.5-1c-0.2-0.6,0.1-1.2,0.5-1.6
		c1.7-2.1,4.2-4.6,7.3-7.1C35.5,70.2,34,73.2,32.1,75.9z M42.4,58.4c0.2-2.1,0.3-4.2,0.2-6.3c1.7,1.4,3.5,2.6,5.2,3.7
		C45.9,56.6,44.1,57.4,42.4,58.4z M71,58.9c-0.2,0.2-0.5,0.5-1.2,0.4c-2.9-0.4-6.7-1.1-10.9-2.7c3.2-0.6,6.7-0.9,10.2-0.8
		c0.9,0,1.6,0.4,1.9,1.1C71.4,57.6,71.3,58.4,71,58.9z"/>
</g>
</symbol><symbol id="doc-text" viewBox="0 0 60 60"><path d="m42.5 22h-25c-.552 0-1 .447-1 1s.448 1 1 1h25c.552 0 1-.447 1-1s-.448-1-1-1z"/><path d="m17.5 16h10c.552 0 1-.447 1-1s-.448-1-1-1h-10c-.552 0-1 .447-1 1s.448 1 1 1z"/><path d="m42.5 30h-25c-.552 0-1 .447-1 1s.448 1 1 1h25c.552 0 1-.447 1-1s-.448-1-1-1z"/><path d="m42.5 38h-25c-.552 0-1 .447-1 1s.448 1 1 1h25c.552 0 1-.447 1-1s-.448-1-1-1z"/><path d="m42.5 46h-25c-.552 0-1 .447-1 1s.448 1 1 1h25c.552 0 1-.447 1-1s-.448-1-1-1z"/><path d="m38.914 0h-32.414v60h47v-45.414zm.586 3.414 10.586 10.586h-10.586zm-31 54.586v-56h29v14h14v42z"/></symbol><symbol id="download-file" viewBox="0 0 100 100">
<g>
	<path d="M81.2,73.1l-6.7,6.7V60.2c0-1.1-0.9-2-2-2s-2,0.9-2,2v19.6l-6.7-6.7c-0.8-0.8-2.1-0.8-2.9,0c-0.8,0.8-0.8,2.1,0,2.9
		L71,86.1c0.2,0.2,0.4,0.3,0.7,0.4c0.2,0.1,0.5,0.2,0.8,0.2s0.5-0.1,0.8-0.2c0.2-0.1,0.5-0.3,0.7-0.4l10.2-10.2
		c0.8-0.8,0.8-2.1,0-2.9S82,72.3,81.2,73.1z"/>
	<path d="M72.5,45.9C57.9,45.9,46,57.8,46,72.4S57.8,99,72.5,99S99,87.1,99,72.5S87.1,45.9,72.5,45.9z M72.5,94.9
		C60.1,94.9,50,84.8,50,72.5C50,60.1,60.1,50,72.5,50S95,60.1,95,72.5C94.9,84.8,84.8,94.9,72.5,94.9z"/>
	<path d="M43.9,86.8H5.1V5.1h40.8v18.4c0,1.1,0.9,2,2,2h18.4v14.3c0,1.1,0.9,2,2,2s2-0.9,2-2V23.5l0,0l0,0c0-0.2-0.1-0.4-0.1-0.6
		c0-0.1,0-0.1,0-0.2c-0.1-0.3-0.3-0.5-0.5-0.7L49.4,1.6c-0.2-0.2-0.4-0.3-0.7-0.4C48.5,1.1,48.2,1,48,1H3C1.9,1,1,1.9,1,3v85.8
		c0,1.1,0.9,2,2,2h40.8c1.1,0,2-0.9,2-2C45.9,87.7,45,86.8,43.9,86.8z M50,8l13.4,13.4H50V8z"/>
</g>
</symbol><symbol id="download" viewBox="0 0 471.2 471.2">
<g>
	<g>
		<path d="M457.7,230.15c-7.5,0-13.5,6-13.5,13.5v122.8c0,33.4-27.2,60.5-60.5,60.5H87.5c-33.4,0-60.5-27.2-60.5-60.5v-124.8
			c0-7.5-6-13.5-13.5-13.5s-13.5,6-13.5,13.5v124.8c0,48.3,39.3,87.5,87.5,87.5h296.2c48.3,0,87.5-39.3,87.5-87.5v-122.8
			C471.2,236.25,465.2,230.15,457.7,230.15z"/>
		<path d="M226.1,346.75c2.6,2.6,6.1,4,9.5,4s6.9-1.3,9.5-4l85.8-85.8c5.3-5.3,5.3-13.8,0-19.1c-5.3-5.3-13.8-5.3-19.1,0l-62.7,62.8
			V30.75c0-7.5-6-13.5-13.5-13.5s-13.5,6-13.5,13.5v273.9l-62.8-62.8c-5.3-5.3-13.8-5.3-19.1,0c-5.3,5.3-5.3,13.8,0,19.1
			L226.1,346.75z"/>
	</g>
</g>
<g>
</g>
<g>
</g>
<g>
</g>
<g>
</g>
<g>
</g>
<g>
</g>
<g>
</g>
<g>
</g>
<g>
</g>
<g>
</g>
<g>
</g>
<g>
</g>
<g>
</g>
<g>
</g>
<g>
</g>
</symbol><symbol id="external" viewBox="0 0 100 100">
<g>
	<path d="M78.2,57.6c-1.1,0-1.9,0.9-1.9,1.9v35.6H4.8V23.6h35.7c1.1,0,1.9-0.9,1.9-1.9s-0.9-1.9-1.9-1.9H2.9c-1.1,0-1.9,0.9-1.9,1.9
		V97c0,1.1,0.9,1.9,1.9,1.9h75.3c1.1,0,1.9-0.9,1.9-1.9V59.6C80.2,58.5,79.3,57.6,78.2,57.6z"/>
	<path d="M99,2.6c0-0.1,0-0.1,0-0.2c0-0.1,0-0.1-0.1-0.2c0-0.1-0.1-0.1-0.1-0.2c0,0,0-0.1-0.1-0.1c-0.1-0.2-0.3-0.4-0.5-0.5
		l-0.1-0.1c-0.1,0-0.1-0.1-0.2-0.1s-0.1,0-0.2-0.1c-0.1,0-0.1,0-0.2,0s-0.3,0-0.4,0H59.4c-1.1,0-1.9,0.9-1.9,1.9s0.9,1.9,1.9,1.9h33
		l-72,72c-0.8,0.8-0.8,2,0,2.7c0.4,0.4,0.9,0.6,1.4,0.6s1-0.2,1.4-0.6l72-72v33c0,1.1,0.9,1.9,1.9,1.9s1.9-0.9,1.9-1.9V3
		C99,2.8,99,2.7,99,2.6z"/>
</g>
</symbol><symbol id="full-screen" viewBox="0 0 100 100">
<g>
	<g>
		<g>
			<path d="M25.5,7.1V1H4.1C2.4,1,1,2.4,1,4.1v21.4h6.1V11.4l28.5,28.5l4.3-4.3L11.4,7.1H25.5z"/>
			<path d="M95.9,1H74.5v6.1h14.1L60.1,35.6l4.3,4.3l28.5-28.5v14.1H99V4.1C99,2.4,97.6,1,95.9,1z"/>
			<path d="M92.9,88.6L64.4,60.1l-4.3,4.3l28.5,28.5H74.5V99h21.4c1.7,0,3.1-1.4,3.1-3.1V74.5h-6.1V88.6z"/>
			<path d="M35.6,60.1L7.1,88.6V74.5H1v21.4C1,97.6,2.4,99,4.1,99h21.4v-6.1H11.4l28.5-28.5L35.6,60.1z"/>
		</g>
	</g>
</g>
</symbol><symbol id="globe" viewBox="0 0 100 100">
<path d="M50,5C25.2,5,5.1,25.1,5.1,49.9c0,24.8,20.1,44.9,44.9,44.9s44.9-20.2,44.9-44.9C94.9,25.1,74.8,5,50,5z M8.2,52.6h19.5
	c0.5,5.8,1.7,11.4,3.6,16.5H12.8C10.2,64.1,8.6,58.5,8.2,52.6z M69.3,49.5C69.3,49.5,69.3,49.6,69.3,49.5l-17.8,0.1V33.2h15.6
	C68.9,39.1,69.4,44.7,69.3,49.5z M51.5,30.2V9.7c7.5,6.6,12,13.7,14.6,20.5H51.5z M48.5,30.2H33.6c2.6-6.9,7.2-14,14.9-20.6V30.2z
	 M48.5,33.2v16.4h-18c-0.2-4.8,0.3-10.5,2.1-16.4H48.5z M27.5,49.6H8.1c0-5.8,1.3-11.4,3.5-16.4h17.9C27.8,39.1,27.3,44.8,27.5,49.6
	z M30.7,52.6h17.8v16.5h-14C32.5,64,31.2,58.4,30.7,52.6z M48.5,72.1v18.4c-4.7-4-9.4-10.5-12.8-18.4H48.5z M51.5,90.2V72.1h12.6
	C60.7,79.8,56.1,86.2,51.5,90.2z M51.5,69.1V52.6h17.6c-0.5,5.8-1.9,11.4-3.8,16.5H51.5z M72.2,52.6h19.6c-0.4,5.9-2,11.5-4.6,16.5
	H68.6C70.5,64,71.7,58.4,72.2,52.6z M72.4,49.6c0.1-4.8-0.4-10.5-2.1-16.4h18.1c2.2,5,3.4,10.6,3.5,16.4H72.4z M87,30.2H69.4
	c-2.6-7.3-7.2-14.9-14.9-22C68.6,9.7,80.6,18.3,87,30.2z M45.4,8.3c-7.8,7-12.4,14.7-15,21.9H13C19.4,18.3,31.4,9.8,45.4,8.3z
	 M14.5,72.1h17.9c3.3,8.1,8,14.9,12.9,19.4C32.3,90.1,21.1,82.7,14.5,72.1z M54.5,91.6c4.9-4.6,9.6-11.4,12.9-19.5h18.1
	C78.8,82.7,67.6,90.1,54.5,91.6z"/>
</symbol><symbol id="help" viewBox="0 0 100 100">
<path id="tooltip" d="M50,99c27.1,0,49-21.9,49-49S77.1,1,50,1S1,22.9,1,50S22.9,99,50,99z M44,56c0-4.3,2.8-6.9,5.4-9.4
	c1.9-2,3.7-3.8,3.7-6c0-2.7-1.5-4.4-4.6-4.4c-3.2,0-5.4,2.3-5.8,6h-6.6c0.3-7.1,5.4-11.5,12.8-11.5c7.8,0,11.5,4.1,11.5,9.5
	c0,3.8-2.3,6.3-4.7,8.6c-2.5,2.5-5.2,4.6-5.4,7.7v1.6h-6.4L44,56L44,56z M42.6,65.7c0-2.4,2-4.4,4.5-4.4c2.4,0,4.5,1.9,4.5,4.4
	c0,2.4-2,4.3-4.5,4.3S42.6,68.1,42.6,65.7z"/>
</symbol><symbol id="info-fill" viewBox="0 0 100 100">
<path d="M50,1C22.9,1,1,22.9,1,50s21.9,49,49,49s49-21.9,49-49S77.1,1,50,1z M55.3,80.6H44.8V36.1h10.5V80.6z M50,31.7
	c-3.4,0-6.1-2.6-6.1-6.2c0-3.5,2.7-6.1,6.1-6.1s6.1,2.6,6.1,6.1C56.1,29,53.4,31.7,50,31.7z"/>
</symbol><symbol id="info-outline" viewBox="0 0 100 100">
<g>
	<path d="M50,1C23,1,1,23,1,50s22,49,49,49s49-22,49-49S77,1,50,1z M50,92.9C26.4,92.9,7.1,73.6,7.1,50C7.1,26.4,26.4,7.1,50,7.1
		c23.6,0,42.9,19.2,42.9,42.9C92.9,73.6,73.6,92.9,50,92.9z"/>
	<rect x="44.8" y="36.1" width="10.5" height="44.5"/>
	<path d="M50,19.4c-3.4,0-6.1,2.6-6.1,6.1c0,3.5,2.7,6.2,6.1,6.2s6.1-2.6,6.1-6.2C56.1,22,53.4,19.4,50,19.4z"/>
</g>
</symbol><symbol id="link" viewBox="0 0 100 100">
<path d="M50,1C22.8,1,1,22.8,1,50s21.8,49,49,49s49-21.8,49-49S77.2,1,50,1z M32.9,46.7l5.6,5.6c0.9,0.9,0.9,2.2,0,3.1l-3.1,3.1
	c-0.9,0.9-2.2,0.9-3.1,0l-5.6-5.6C23,49.3,21,44.7,21,39.5c0-10.2,8.5-18.7,18.7-18.7c4.9,0,9.8,2,13.4,5.6l5.6,5.6
	c0.9,0.9,0.9,2.2,0,3.1l-3.1,3.1c-0.9,0.9-2.2,0.9-3.1,0l-5.6-5.6c-1.8-1.8-4.2-2.9-6.9-2.9c-5.3,0-9.8,4.5-9.8,9.8
	C30,42.4,31.1,44.9,32.9,46.7z M60.2,79c-4.9,0-9.8-2-13.4-5.6l-5.6-5.6c-0.9-0.9-0.9-2.2,0-3.1l3.1-3.1c0.9-0.9,2.2-0.9,3.1,0
	l5.6,5.6c1.8,1.8,4.2,2.9,6.9,2.9c5.3,0,9.8-4.5,9.8-9.8c0-2.7-1.1-5.1-2.9-6.9l-5.6-5.6c-0.9-0.9-0.9-2.2,0-3.1l3.1-3.1
	c0.9-0.9,2.2-0.9,3.1,0l5.6,5.6c3.6,3.6,5.6,8.2,5.6,13.4C79,70.5,70.5,79,60.2,79z"/>
</symbol><symbol id="list" viewBox="0 0 100 100">
<g>
	<path d="M12.5,42.9c-4,0-7.3,3.4-7.3,7.6s3.3,7.6,7.3,7.6s7.3-3.4,7.3-7.6S16.6,42.9,12.5,42.9L12.5,42.9z M12.5,62.4
		C6.2,62.4,1,57.1,1,50.5s5.2-11.9,11.5-11.9c6.4,0,11.5,5.3,11.5,11.9S18.9,62.4,12.5,62.4L12.5,62.4z"/>
	<path d="M12.5,13.2c-4,0-7.3,3.4-7.3,7.6s3.3,7.6,7.3,7.6s7.3-3.4,7.3-7.6C19.9,16.6,16.6,13.2,12.5,13.2L12.5,13.2z M12.5,32.6
		C6.2,32.6,1,27.3,1,20.8S6.2,8.9,12.5,8.9c6.4,0,11.5,5.3,11.5,11.9S18.9,32.6,12.5,32.6L12.5,32.6z"/>
	<path d="M12.5,72.7c-4,0-7.3,3.4-7.3,7.6s3.3,7.6,7.3,7.6s7.3-3.4,7.3-7.6C19.9,76.1,16.6,72.7,12.5,72.7L12.5,72.7z M12.5,92.2
		C6.2,92.2,1,86.8,1,80.2c0-6.6,5.2-11.9,11.5-11.9c6.4,0,11.5,5.3,11.5,11.9C24.1,86.8,18.9,92.2,12.5,92.2L12.5,92.2z"/>
	<path d="M97.2,20.8H37.4c-1,0-1.8-1.3-1.8-3c0-1.6,0.8-3,1.8-3h59.8c1,0,1.8,1.3,1.8,3C99,19.4,98.2,20.8,97.2,20.8"/>
	<path d="M37.4,53.5c-1,0-1.8-1.3-1.8-3s0.8-3,1.8-3h59.8c1,0,1.8,1.3,1.8,3s-0.8,3-1.8,3H37.4z"/>
	<path d="M97.2,86.2H37.4c-1,0-1.8-1.3-1.8-3c0-1.6,0.8-3,1.8-3h59.8c1,0,1.8,1.3,1.8,3C99,84.9,98.2,86.2,97.2,86.2"/>
</g>
</symbol><symbol id="lock" viewBox="0 0 100 100">
<g>
	<path d="M84,37.6h-9.8V25.7C74.2,12.1,63.1,1,49.5,1S24.8,12.1,24.8,25.7v11.8H15c-1.3,0-2.3,1-2.3,2.4v56.8c0,1.3,1,2.3,2.3,2.3
		H84c1.3,0,2.3-1,2.3-2.3V39.9C86.3,38.6,85.3,37.6,84,37.6z M49.5,5.7c11,0,20,9,20,20v11.8H29.5V25.7C29.5,14.7,38.5,5.7,49.5,5.7
		z M81.5,42.2v52.1H17.4V42.2H81.5z"/>
	<path d="M47.2,65.8v10.5c0,1.3,1,2.3,2.3,2.3c1.3,0,2.4-1,2.4-2.3V65.8c1.3-0.9,2.1-2.2,2.1-3.7c0-2.5-1.9-4.4-4.4-4.4
		c-2.5,0-4.4,1.9-4.4,4.4C45.1,63.6,45.9,65,47.2,65.8z M49.5,61.7c0.1,0,0.3,0.2,0.3,0.4c0,0.1-0.1,0.3-0.3,0.3
		c-0.1,0-0.3-0.1-0.3-0.3C49.2,61.9,49.4,61.7,49.5,61.7z"/>
</g>
</symbol><symbol id="marker" viewBox="0 0 100 100">
<g id="Page-1">
	<g id="Icons" transform="translate(-292.000000, 0.000000)">
		<g id="Group-7" transform="translate(292.000000, 0.000000)">
			<g id="Stroke-4">
				<path d="M50,99c-0.7,0-1.3-0.3-1.7-0.9c-1.3-1.9-31-47.1-31-64.4C17.3,15.7,32,1,50,1s32.7,14.7,32.7,32.7
					c0,17.3-29.7,62.5-31,64.4C51.3,98.7,50.7,99,50,99z M50,5.1c-15.8,0-28.6,12.8-28.6,28.6c0,13.9,22.2,49.5,28.6,59.5
					c6.4-10,28.6-45.7,28.6-59.5C78.6,17.9,65.8,5.1,50,5.1z"/>
			</g>
			<g id="Stroke-6">
				<path d="M50,48c-7.9,0-14.3-6.4-14.3-14.3S42.1,19.4,50,19.4s14.3,6.4,14.3,14.3S57.9,48,50,48z M50,23.5
					c-5.6,0-10.2,4.6-10.2,10.2S44.4,43.9,50,43.9c5.6,0,10.2-4.6,10.2-10.2S55.6,23.5,50,23.5z"/>
			</g>
		</g>
	</g>
</g>
</symbol><symbol id="minus" viewBox="0 0 100 100">
<path d="M4.5,53.2c-1.9,0-3.5-1.6-3.5-3.5s1.5-3.5,3.5-3.5h91c1.9,0,3.5,1.5,3.5,3.5s-1.6,3.5-3.5,3.5L4.5,53.2L4.5,53.2z"/>
</symbol><symbol id="plus" viewBox="0 0 100 100">
<path d="M4.5,53.2c-1.9,0-3.5-1.6-3.5-3.5c0-1.9,1.5-3.5,3.5-3.5h42v-42c0-1.9,1.6-3.5,3.5-3.5s3.5,1.6,3.5,3.5v42h42
	c1.9,0,3.5,1.5,3.5,3.5c0,1.9-1.6,3.5-3.5,3.5h-42v42c0,1.9-1.5,3.5-3.5,3.5s-3.5-1.6-3.5-3.5v-42H4.5z"/>
</symbol><symbol id="print" viewBox="0 0 100 100">
<path d="M88.8,29.6H11.2C5.6,29.6,1,34.2,1,39.8v24.5c0,5.6,4.6,10.2,10.2,10.2h10.2v18.4c0,1.1,0.9,2,2,2h53.1c1.1,0,2-0.9,2-2
	V74.5h10.2c5.6,0,10.2-4.6,10.2-10.2V39.8C99,34.2,94.4,29.6,88.8,29.6z M74.5,90.8h-49V62.2h49V90.8z M94.9,64.3
	c0,3.4-2.7,6.1-6.1,6.1H78.6V60.2c0-1.1-0.9-2-2-2H23.5c-1.1,0-2,0.9-2,2v10.2H11.2c-3.4,0-6.1-2.7-6.1-6.1V39.8
	c0-3.4,2.7-6.1,6.1-6.1h77.6c3.4,0,6.1,2.7,6.1,6.1C94.9,39.8,94.9,64.3,94.9,64.3z"/>
<path d="M15.3,37.8c-3.4,0-6.1,2.7-6.1,6.1s2.7,6.1,6.1,6.1s6.1-2.7,6.1-6.1S18.7,37.8,15.3,37.8z M15.3,45.9c-1.1,0-2-0.9-2-2
	s0.9-2,2-2s2,0.9,2,2S16.4,45.9,15.3,45.9z"/>
<g>
	<path d="M68.4,70.4H31.6c-1.1,0-2-0.9-2-2s0.9-2,2-2h36.8c1.1,0,2,0.9,2,2S69.5,70.4,68.4,70.4z"/>
</g>
<g>
	<path d="M68.4,78.6H31.6c-1.1,0-2-0.9-2-2s0.9-2,2-2h36.8c1.1,0,2,0.9,2,2S69.5,78.6,68.4,78.6z"/>
</g>
<g>
	<path d="M68.4,86.8H31.6c-1.1,0-2-0.9-2-2s0.9-2,2-2h36.8c1.1,0,2,0.9,2,2C70.4,85.8,69.5,86.8,68.4,86.8z"/>
</g>
<path d="M78.4,18.6c-0.1-0.2-0.3-0.5-0.4-0.7L65.7,5.7c-0.2-0.2-0.4-0.3-0.7-0.4c-0.2-0.1-0.5-0.2-0.8-0.2H23.5c-1.1,0-2,0.9-2,2
	v16.3c0,1.1,0.9,2,2,2s2-0.9,2-2V9.2h36.8v10.2c0,1.1,0.9,2,2,2h10.2v2c0,1.1,0.9,2,2,2s2-0.9,2-2v-4.1
	C78.6,19.1,78.5,18.8,78.4,18.6z M66.3,12.1l5.3,5.3h-5.3V12.1z"/>
</symbol><symbol id="refresh" viewBox="0 0 100 100">
<g>
	<path d="M30.9,44.4c0-0.7-0.4-1.4-0.9-1.9c-1.1-0.9-2.8-0.8-3.7,0.3l-9.5,11.4c-0.7-6.9,0.9-13.9,4.6-19.9
		c4.7-7.9,12.5-13.7,21.3-15.8c11.5-2.7,23.7,1.1,31.7,10.1c0.5,0.5,1.2,0.9,1.9,0.9c0.7,0,1.4-0.2,1.9-0.7c0.5-0.5,0.9-1.2,0.9-1.9
		c0-0.7-0.2-1.4-0.7-1.9C69,14.6,54.9,10.1,41.4,13.4c-10.1,2.4-19.1,9.1-24.6,18.3c-3.4,5.6-5.3,11.9-5.5,18.3l-5.5-8.2
		c-0.4-0.6-1-1-1.7-1.2c-0.7-0.1-1.4,0-1.9,0.4c-0.6,0.4-1,1-1.2,1.7c-0.1,0.7,0,1.4,0.4,1.9l11.5,17.1c0.5,0.7,1.3,1.1,2.1,1.1h0.1
		c0.8,0,1.6-0.4,2-0.9l13.1-15.7C30.7,45.7,30.9,45.1,30.9,44.4z"/>
	<path d="M98.6,59.5L87.1,42.4c-0.5-0.7-1.3-1.1-2.1-1.1c-0.5,0-1,0.2-1.5,0.5c-0.2,0.1-0.4,0.2-0.5,0.4L69.8,57.9
		c-0.5,0.5-0.7,1.2-0.6,1.9c0.1,0.7,0.4,1.3,0.9,1.8c0.5,0.5,1.2,0.7,1.9,0.6c0.7-0.1,1.3-0.4,1.8-0.9l8.9-10.6
		c-0.4,14.2-11.1,27.4-25.3,30.7c-10.9,2.6-22.2-0.6-30.2-8.5c-1-1-2.6-1-3.7-0.1L23.5,73c-0.9,1.1-0.9,2.6,0.1,3.7
		c7.1,7,16.4,10.9,26.3,10.9c3.1,0,6-0.3,8.8-1c16.1-3.8,27.9-17.7,29.2-33.7l6.3,9.5c0.5,0.9,1.5,1.2,2.2,1.2c0.5,0,1-0.2,1.4-0.4
		c0.6-0.4,1.1-0.9,1.3-1.6C99.1,60.8,99,60.1,98.6,59.5z"/>
</g>
</symbol><symbol id="remove" viewBox="0 0 100 100">
<path d="M59.8,50L97,12.8c2.7-2.7,2.7-7.1,0-9.8s-7.1-2.7-9.8,0L50,40.2L12.8,3C10.1,0.3,5.7,0.3,3,3s-2.7,7.1,0,9.8L40.2,50L3,87.2
	c-2.7,2.7-2.7,7.1,0,9.8s7.1,2.7,9.8,0L50,59.8L87.2,97c2.7,2.7,7.1,2.7,9.8,0s2.7-7.1,0-9.8L59.8,50z"/>
</symbol><symbol id="return-left" viewBox="0 0 100 100">
<path id="arrow_down" d="M0.8,50.5c0,1.8,0.9,3.4,2.2,4.5c0.1,0.2,0.3,0.4,0.5,0.6l32.6,32.6c2.2,2.2,5.9,2.2,8.1,0
	c2.3-2.3,2.3-5.9,0-8.1L20.5,56.3h72.6c3.2,0,5.8-2.6,5.8-5.8c0-3.2-2.6-5.8-5.8-5.8H20.5L44.3,21c2.2-2.2,2.2-5.9,0-8.1
	c-2.3-2.3-5.9-2.2-8.1,0L3.5,45.5C3.3,45.6,3.2,45.8,3,46C1.7,47,0.8,48.6,0.8,50.5z"/>
</symbol><symbol id="return-right" viewBox="0 0 100 100">
<path id="arrow_down" d="M96.6,46c-0.1-0.2-0.3-0.3-0.4-0.5L63.5,12.8c-2.2-2.2-5.9-2.2-8.1,0c-2.3,2.3-2.3,5.9,0,8.1l23.8,23.8H6.6
	c-3.1,0-5.8,2.6-5.8,5.8c0,3.2,2.6,5.8,5.8,5.8h72.6L55.4,80c-2.2,2.2-2.2,5.9,0,8.1c2.3,2.3,5.9,2.2,8.1,0l32.6-32.6
	c0.2-0.2,0.3-0.4,0.5-0.6c1.3-1.1,2.2-2.7,2.2-4.5C98.8,48.6,98,47,96.6,46z"/>
</symbol><symbol id="social-facebook" viewBox="0 0 90 90"><path d="m90 15.001c0-7.882-7.116-15.001-15-15.001h-60c-7.884 0-15 7.119-15 15.001v59.998c0 7.882 7.116 15.001 15.001 15.001h29.999v-34h-11v-15h11v-5.844c0-10.079 7.568-19.156 16.875-19.156h12.125v15h-12.125c-1.327 0-2.875 1.611-2.875 4.024v5.976h15v15h-15v34h16c7.884 0 15-7.119 15-15.001z"/></symbol><symbol id="social-instagram" viewBox="0 0 409.61 409.61"><path d="m307.205 0h-204.8c-56.315 0-102.4 46.085-102.4 102.4v204.81c0 56.3 46.085 102.4 102.4 102.4h204.8c56.315 0 102.4-46.1 102.4-102.4v-204.81c0-56.315-46.085-102.4-102.4-102.4zm68.265 307.21c0 37.632-30.612 68.265-68.265 68.265h-204.8c-37.637 0-68.265-30.633-68.265-68.265v-204.81c0-37.642 30.628-68.265 68.265-68.265h204.8c37.653 0 68.265 30.623 68.265 68.265z"/><circle cx="315.755" cy="93.865" r="25.6"/><path d="m204.805 102.4c-56.566 0-102.4 45.839-102.4 102.4 0 56.54 45.834 102.41 102.4 102.41 56.55 0 102.4-45.87 102.4-102.41 0-56.561-45.85-102.4-102.4-102.4zm0 170.675c-37.699 0-68.265-30.566-68.265-68.275s30.566-68.265 68.265-68.265 68.265 30.556 68.265 68.265-30.566 68.275-68.265 68.275z"/></symbol><symbol id="social-linkedin" viewBox="0 0 430.117 430.118"><path d="m398.355 0h-366.573c-17.553 0-31.78 13.793-31.78 30.817v368.471c0 17.025 14.232 30.83 31.78 30.83h366.573c17.549 0 31.76-13.814 31.76-30.83v-368.471c0-17.019-14.211-30.817-31.76-30.817zm-267.955 360.038h-64.987v-194.193h64.987zm-32.487-220.723h-.437c-21.793 0-35.92-14.904-35.92-33.563 0-19.035 14.542-33.535 36.767-33.535 22.227 0 35.899 14.496 36.331 33.535 0 18.663-14.099 33.563-36.741 33.563zm266.746 220.723h-64.966v-103.9c0-26.107-9.413-43.921-32.907-43.921-17.973 0-28.642 12.018-33.327 23.621-1.736 4.144-2.166 9.94-2.166 15.728v108.468h-64.954s.85-175.979 0-194.192h64.964v27.531c8.624-13.229 24.035-32.1 58.534-32.1 42.76 0 74.822 27.739 74.822 87.414zm-133.776-166.048c.111-.182.266-.401.42-.614v.614z"/></symbol><symbol id="social-twitter" viewBox="0 0 430.117 430.117"><path d="m381.384 198.639c24.157-1.993 40.543-12.975 46.849-27.876-8.714 5.353-35.764 11.189-50.703 5.631-.732-3.51-1.55-6.844-2.353-9.854-11.383-41.798-50.357-75.472-91.194-71.404 3.304-1.334 6.655-2.576 9.996-3.691 4.495-1.61 30.868-5.901 26.715-15.21-3.5-8.188-35.722 6.188-41.789 8.067 8.009-3.012 21.254-8.193 22.673-17.396-12.27 1.683-24.315 7.484-33.622 15.919 3.36-3.617 5.909-8.025 6.45-12.769-32.726 20.907-51.843 63.057-67.314 103.944-12.148-11.773-22.915-21.044-32.574-26.192-27.097-14.531-59.496-29.692-110.355-48.572-1.561 16.827 8.322 39.201 36.8 54.08-6.17-.826-17.453 1.017-26.477 3.178 3.675 19.277 15.677 35.159 48.169 42.839-14.849.98-22.523 4.359-29.478 11.642 6.763 13.407 23.266 29.186 52.953 25.947-33.006 14.226-13.458 40.571 13.399 36.642-45.816 47.323-118.05 43.845-159.529 4.264 108.299 147.572 343.716 87.274 378.799-54.866 26.285.224 41.737-9.105 51.318-19.39-15.144 2.57-37.094-.086-48.733-4.933z"/></symbol><symbol id="social-youtube" viewBox="0 0 100 100">
<g id="XMLID_822_">
	<path id="XMLID_823_" d="M95.2,21.4c-3.5-4.2-10.1-5.9-22.5-5.9H27.4c-12.8,0-19.4,1.8-22.9,6.3C1,26.2,1,32.6,1,41.5v17
		c0,17.2,4.1,26,26.4,26h45.3c10.8,0,16.8-1.5,20.7-5.2c4-3.8,5.7-10,5.7-20.8v-17C99,32.1,98.7,25.7,95.2,21.4z M63.9,52.3
		L43.4,63.1c-0.5,0.2-1,0.4-1.5,0.4c-0.6,0-1.1-0.2-1.6-0.5c-0.9-0.6-1.5-1.6-1.5-2.7V38.9c0-1.1,0.6-2.1,1.5-2.7
		c0.9-0.6,2.1-0.6,3.1-0.1L64,46.8c1,0.5,1.7,1.6,1.7,2.8C65.6,50.7,65,51.8,63.9,52.3z"/>
</g>
</symbol><symbol id="ui-collapse" viewBox="0 0 100 100">
<g id="_x2D_" transform="translate(387.000000, 1638.000000)">
	<g id="Stroke-1">
		<path d="M-337-1539c-13.1,0-25.4-5.1-34.6-14.4c-9.3-9.3-14.4-21.6-14.4-34.6s5.1-25.4,14.4-34.6c9.3-9.3,21.6-14.4,34.6-14.4
			c13.1,0,25.4,5.1,34.6,14.4l0,0l0,0c9.3,9.3,14.4,21.6,14.4,34.6s-5.1,25.4-14.4,34.6C-311.6-1544.1-323.9-1539-337-1539z
			 M-337-1628.8c-10.9,0-21.2,4.2-28.9,12c-7.7,7.7-12,18-12,28.9s4.2,21.2,12,28.9c7.7,7.7,18,12,28.9,12s21.2-4.2,28.9-12
			c7.7-7.7,12-18,12-28.9s-4.2-21.2-12-28.9l0,0C-315.8-1624.6-326.1-1628.8-337-1628.8z"/>
	</g>
	<g id="Stroke-3">
		<path d="M-316.6-1583.9h-40.8c-2.3,0-4.1-1.8-4.1-4.1c0-2.3,1.8-4.1,4.1-4.1h40.8c2.3,0,4.1,1.8,4.1,4.1
			C-312.5-1585.7-314.3-1583.9-316.6-1583.9z"/>
	</g>
</g>
</symbol><symbol id="ui-expand" viewBox="0 0 100 100">
<g>
	<path d="M84.6,15.4C75.4,6.1,63.1,1,50,1C37,1,24.7,6.1,15.4,15.4C6.1,24.6,1,37,1,50s5.1,25.3,14.4,34.6C24.6,93.9,36.9,99,50,99
		c13.1,0,25.4-5.1,34.6-14.4C93.9,75.4,99,63,99,50S93.9,24.7,84.6,15.4z M78.9,79c-7.7,7.8-18,12-28.9,12c-10.9,0-21.2-4.3-28.9-12
		c-7.8-7.7-12-18-12-28.9s4.3-21.2,12-28.9c7.7-7.8,18-12,28.9-12c10.9,0,21.2,4.2,28.9,12c7.8,7.7,12,18,12,28.9S86.6,71.3,78.9,79
		z"/>
	<path d="M70.4,45.9H54.1V29.6c0-2.3-1.8-4.1-4.1-4.1s-4.1,1.8-4.1,4.1v16.3H29.6c-2.3,0-4.1,1.8-4.1,4.1c0,2.3,1.8,4.1,4.1,4.1
		h16.3v16.3c0,2.3,1.8,4.1,4.1,4.1s4.1-1.8,4.1-4.1V54.1h16.3c2.3,0,4.1-1.8,4.1-4.1C74.5,47.7,72.7,45.9,70.4,45.9z"/>
</g>
</symbol><symbol id="video" viewBox="0 0 30.051 30.051"><path d="m19.982 14.438-6.24-4.536c-.229-.166-.533-.191-.784-.062-.253.128-.411.388-.411.669v9.069c0 .284.158.543.411.671.107.054.224.081.342.081.154 0 .31-.049.442-.146l6.24-4.532c.197-.145.312-.369.312-.607.001-.242-.117-.465-.312-.607z"/><path d="m15.026.002c-8.3 0-15.026 6.726-15.026 15.026 0 8.297 6.726 15.021 15.026 15.021 8.298 0 15.025-6.725 15.025-15.021.001-8.3-6.727-15.026-15.025-15.026zm0 27.54c-6.912 0-12.516-5.601-12.516-12.514 0-6.91 5.604-12.518 12.516-12.518 6.911 0 12.514 5.607 12.514 12.518.001 6.913-5.603 12.514-12.514 12.514z"/></symbol><symbol id="warning" viewBox="0 0 100 100"><path d="m84.5 14.8c-9.2-9.1-21.4-13.9-34.5-13.8-13.2.2-25.5 5.5-34.8 14.9-9.4 9.5-14.4 21.9-14.2 34.9.2 13.2 5.4 25.4 14.5 34.4 9 8.9 20.9 13.8 33.6 13.8h.9c13.1-.2 25.5-5.5 34.8-14.9 9.4-9.5 14.4-21.9 14.2-34.9-.2-13.2-5.4-25.4-14.5-34.4zm-2.5 66.5c-8.6 8.7-19.9 13.6-32 13.8-12 .2-23.3-4.3-31.7-12.7-8.4-8.3-13.1-19.5-13.4-31.6-.2-12 4.4-23.4 13-32.1 8.7-8.7 20-13.6 32.1-13.8h.8c11.7 0 22.6 4.5 30.9 12.6 8.4 8.3 13.1 19.6 13.4 31.7.2 12-4.5 23.4-13.1 32.1z"/><path d="m50 58.4c1.1 0 2-.9 2-2v-29.9c0-1.1-.9-2-2-2s-2 .9-2 2v29.9c0 1.1.9 2 2 2z"/><circle cx="50" cy="71.4" r="4.1"/></symbol></svg>