<svg height="23" viewBox="0 0 23 23" width="23" xmlns="http://www.w3.org/2000/svg"><g fill="none" fill-rule="evenodd"><circle cx="11.5" cy="11.5" fill="#00afee" r="11.5"/><g fill="#fff" transform="translate(4.3125 4.791667)"><path d="m1.1974375 9.35342917-.01883621.63202083c0 .1763333.13383621.3186458.29939655.3186458h11.37459056c.1655603 0 .2993965-.1423125.2993965-.3186458l.0188362-.63202083c0-.17585417-.1338362-.31816667-.2993965-.31816667h-11.37459055c-.16556034 0-.29939655.1423125-.29939655.31816667"/><path d="m14.0686638 10.9448854h-13.76926725c-.16556034 0-.29939655.1423125-.29939655.3181667v.6368125c0 .1758542.13383621.3181667.29939655.3181667h13.76926725c.1655603 0 .2993965-.1423125.2993965-.3181667v-.6368125c0-.1758542-.1338362-.3181667-.2993965-.3181667"/><path d="m.89804095 3.4635125h12.57168105.0064439c.1650647 0 .2993966-.1423125.2993966-.31816667 0-.1451875-.0921983-.26785416-.2176078-.30666666l-6.25659479-2.52760417c-.07435344-.0345-.16060344-.0345-.23545258 0l-6.28584052 2.54197917c-.13036638.05941666-.20422414.2084375-.17547414.3565s.15118535.25395833.29344828.25395833"/><path d="m12.1338384 8.50645417v-1.227625s.0619612-1.474875-1.3973492-1.474875c-1.45931032 0-1.39734911 1.474875-1.39734911 1.474875v1.22666666h-.75493535v-1.22666666s.06047414-1.47535417-1.39734914-1.47535417c-1.45782327 0-1.39734913 1.47535417-1.39734913 1.47535417v1.22666666l-.75939656.00095834v-1.22666667c0-1.01439583-.62655172-1.47583333-1.39685344-1.47583333-.77079742 0-1.39734914.4614375-1.39734914 1.47583333v1.22666667h-.9299138l-.02627155-3.67952084h-.43967672c-.12838362 0-.23247845-.13704166-.23247845-.3061875 0-.169625.10409483-.30666666.23247845-.30666666h12.68816814c.1283836 0 .2324784.13704166.2324784.30666666 0 .16914584-.1040948.3061875-.2324784.3061875h-.4659483v3.67952084z"/></g></g></svg>