<svg height="23" viewBox="0 0 23 23" width="23" xmlns="http://www.w3.org/2000/svg" xmlns:xlink="http://www.w3.org/1999/xlink"><mask id="a" fill="#fff"><path d="m0 0h2.875v2.875h-2.875z" fill="#fff" fill-rule="evenodd"/></mask><g fill="none" fill-rule="evenodd"><circle cx="11.5" cy="11.5" fill="#00afee" r="11.5"/><g fill="#fff" transform="translate(6.708333 4.791667)"><path d="m9.34375 4.79166667h-9.10416667c-.13225 0-.23958333.10733333-.23958333.23958333v7.1875c0 .13225.10733333.2395833.23958333.2395833h9.10416667c.13225 0 .23958333-.1073333.23958333-.2395833v-7.1875c0-.13225-.10733333-.23958333-.23958333-.23958333"/><path d="m2.20416667 3.83333333c.1587 0 .2875-.12266666.2875-.27380952v-.82142857c0-1.2075 1.032125-2.19047619 2.3-2.19047619s2.3.98297619 2.3 2.19047619v.82142857c0 .15114286.1288.27380952.2875.27380952s.2875-.12266666.2875-.27380952v-.82142857c0-1.50978572-1.289725-2.73809524-2.875-2.73809524s-2.875 1.22830952-2.875 2.73809524v.82142857c0 .15114286.1288.27380952.2875.27380952"/><path d="m2.81184047.97977996-.91597506-.91630369c-.04059484-.04059027-.09544106-.06347627-.15287844-.06347627-.05700552 0-.11185174.022886-.15244658.06347627l-1.52705697 1.52731676c-.04059484.04015846-.06348342.0949985-.06348342.15242941v.91587188c0 .11917994.09673664.21590568.21593.21590568h.91640693c.05743738 0 .1122836-.022886.15287844-.06347627l1.5266251-1.52645314c.08421271-.08463502.08421271-.22108741 0-.30529063" mask="url(#a)" transform="translate(8.625 .958333)"/></g></g></svg>