<svg height="23" viewBox="0 0 23 23" width="23" xmlns="http://www.w3.org/2000/svg"><g fill="none" fill-rule="evenodd"><circle cx="11.5" cy="11.5" fill="#00afee" r="11.5"/><path d="m16.0281817 8.62473407c-.1474525 0-.2932964-.02037525-.4332422-.06058956l.6530804-.65361655c.0890076-.08847148.1158172-.22251917.06756-.33940876-.047721-.1163534-.1619296-.1919563-.2873982-.1919563h-1.523318c-.0203753-.10134005-.03378-.20482487-.03378-.31152683 0-.85844143.6981203-1.55763419 1.557098-1.55763419.8584414 0 1.557098.69919276 1.557098 1.55763419 0 .85897761-.6986566 1.557098-1.557098 1.557098m0-3.73724968c-1.2021398 0-2.1801517.97801197-2.1801517 2.18015168 0 .10562958.0107238.2091144.0252009.31152683h-6.62946265-1.18176446c-.12600483 0-.24021347.0756029-.28793445.1919563-.04879336.11688959-.02198382.25093728.06756004.33940876l4.89166842 4.89274074v5.1651257h-2.18015169c-.17211724 0-.31099065.1399458-.31099065.3115269 0 .1721172.13887341.3115268.31099065.3115268h4.98389319c.1715811 0 .3109907-.1394096.3109907-.3115268 0-.1715811-.1394096-.3115269-.3109907-.3115269h-2.1806878v-5.1651257l3.7576249-3.75816107c.2852535.13136674.5962441.20268011.9142053.20268011 1.2021397 0 2.1801516-.97747577 2.1801516-2.18015167 0-1.20213971-.9780119-2.18015168-2.1801516-2.18015168" fill="#fff"/></g></svg>
