<svg height="23" viewBox="0 0 23 23" width="23" xmlns="http://www.w3.org/2000/svg" xmlns:xlink="http://www.w3.org/1999/xlink"><mask id="a" fill="#fff"><path d="m.51071058.4728343h12.90425322v1.07524262h-12.90425322z" fill="#fff" fill-rule="evenodd"/></mask><g fill="none" fill-rule="evenodd"><circle cx="11.5" cy="11.5" fill="#00afee" r="11.5"/><g fill="#fff" transform="translate(4.791667 4.3125)"><path d="m1.56907917 11.4511766c0 .1486154.12023397.2688494.26884936.2688494h10.21575957c.1486154 0 .2688494-.120234.2688494-.2688494 0-.1480994-.120234-.2688494-.2688494-.2688494h-10.21575957c-.14861539 0-.26884936.12075-.26884936.2688494"/><path d="m3.46789872 10.6483955c.14861538 0 .26884936-.120234.26884936-.2688493l-.01702885-4.30520197c0-.14809936-.12023397-.26884936-.26884936-.26884936h-1.07539743c-.14809936 0-.26884936.12075-.26884936.26884936l.01702884 4.30520197c0 .1486153.12023398.2688493.26884936.2688493z"/><path d="m6.15608269 10.6483955c.14861539 0 .26884936-.120234.26884936-.2688493l-.01702884-4.30520197c0-.14809936-.11971795-.26884936-.26833334-.26884936h-1.07539743c-.14861539 0-.26936539.12075-.26936539.26884936l.01754487 4.30520197c0 .1486153.11971795.2688493.26833334.2688493z"/><path d="m8.84457628 10.6483955c.14861539 0 .26884936-.120234.26884936-.2688493l-.01702885-4.30520197c0-.14809936-.11971794-.26884936-.26833333-.26884936h-1.07539743c-.14861539 0-.26936539.12075-.26936539.26884936l.01754487 4.30520197c0 .1486153.11971795.2688493.26833334.2688493z"/><path d="m11.5330183 10.6483955c.1486154 0 .2688493-.120234.2688493-.2688493l-.0170288-4.30520197c0-.14809936-.120234-.26884936-.2683334-.26884936h-1.0753974c-.1486154 0-.2693654.12075-.2693654.26884936l.0170289 4.30520197c0 .1486153.1202339.2688493.2688493.2688493z"/><path d="m6.15608269 1.50808494c.14861539 0 .26884936.11971794.26884936.26884935 0 .14861539-.12023397.26833334-.26884936.26833334-.66360897 0-1.61309615.31683974-1.61309615.53769872 0 .14861538-.11971795.26884936-.26833333.26884936-.14913142 0-.26884936-.12023398-.26884936-.26884936 0-.81016026 1.59916346-1.07488141 2.15027884-1.07488141m-4.03222436 2.15027884h9.67754487c.1491314 0 .2693654-.11971795.2693654-.26884936 0-1.74107051-2.10074039-2.95682692-5.10813783-2.95682692s-5.1076218 1.21575641-5.1076218 2.95682692c0 .14913141.11971795.26884936.26884936.26884936"/><path d="m1.31710385 5.27145994h11.29115705c.1486154 0 .2688494-.11971795.2688494-.26884936l-.0165129-.54079487c0-.14861539-.12075-.26936539-.2693653-.26936539h-11.2911571c-.14809936 0-.26884936.12075-.26884936.26936539l.01702885.54079487c0 .14913141.12023397.26884936.26884936.26884936"/><path d="m13.1461144.4728343h-12.36655446c-.14861539 0-.26884936.11971794-.26884936.26884935v.5371827c0 .14913141.12023397.26936538.26884936.26936538h12.36655446c.1486154 0 .2688494-.12023397.2688494-.26936538v-.5371827c0-.14913141-.120234-.26884935-.2688494-.26884935" mask="url(#a)" transform="translate(0 11.788657)"/></g></g></svg>