<svg height="23" viewBox="0 0 23 23" width="23" xmlns="http://www.w3.org/2000/svg"><g fill="none" fill-rule="evenodd"><circle cx="11.5" cy="11.5" fill="#00afee" r="11.5"/><g fill="#fff" transform="translate(5 4)"><path d="m1.58351663 13.6634827h1.90839694c.02652349.1888318.16431621.3365173.33833614.3365173h4.33885367c.17466684 0 .31181265-.1469508.33833613-.3365173h1.90839699c.3228102 0 .5841635-.2968405.5841635-.6634827h-10c0 .3666422.26135334.6634827.58351663.6634827z"/><path d="m13.4834306 8.23832626c-.4859592-.36931474-1.1703087-.37537902-1.6207258-.32868405.0129245-.29472408.0200329-.59611886.0200329-.90964221h-11.8827377c0 3.0139478.48595925 5.1885992 3.56133172 6h4.76007429c1.21812925-.3208005 2.02590729-.8599151 2.56162569-1.5767132 1.1670776-.0212249 3.0443537-.4523954 3.114792-1.96482713.0303724-.66221952-.2630125-1.02971498-.5143931-1.22013341zm-2.1112086 2.32019404c.223593-.5391146.3560686-1.14554274.4290917-1.81200726.3153565-.04851425.8588296-.07944209 1.1334741.13038205.0504054.0388114.2074374.15888417.1893432.54639175-.0368347.78350516-1.0733754 1.04669496-1.751909 1.13523346z" fill-rule="nonzero"/><path d="m4.42389084 5s2.16328708-.156269 1.17188352-1.95062629c-.79608965-1.44047185-.61437353-2.28566217.40422564-3.04937371 0 0-3.33640676.83606956-1.39068455 3.42332482.71388474 1.12732579-.18542461 1.57667518-.18542461 1.57667518z"/><path d="m6 5s1.61826708-.42487419.73756966-2.04601006c-.31972894-.70309131.12119689-.95398994.12119689-.95398994s-1.04171615.04097771-.60194456 1.15600288c.35204811.89647735.24758794 1.40546369-.25682199 1.84399712z"/></g></g></svg>