<svg height="23" viewBox="0 0 23 23" width="23" xmlns="http://www.w3.org/2000/svg"><g fill="none" fill-rule="evenodd"><circle cx="11.5" cy="11.5" fill="#00afee" r="11.5"/><path d="m7.66666667 6.70833333.52561817-.95833333h6.61543036l.5256181.95833333zm5.75000003 1.91666667h1.9166666v-1.91666667h-1.9166666zm0 2.875h1.9166666v-1.91666667h-1.9166666zm0 2.875h1.9166666v-1.9166667h-1.9166666zm-2.875-5.75h1.9166666v-1.91666667h-1.9166666zm0 2.875h1.9166666v-1.91666667h-1.9166666zm0 2.875h1.9166666v-1.9166667h-1.9166666zm-2.87500003-5.75h1.91666666v-1.91666667h-1.91666666zm0 2.875h1.91666666v-1.91666667h-1.91666666zm0 2.875h1.91666666v-1.9166667h-1.91666666zm8.54726853-8.4683125s-.0005324-.0005191-.0005324-.00103819l-1.0648148-1.03767535c-.0495139-.04879514-.1171297-.07630729-.1879399-.07630729h-6.92129625c-.07081018 0-.13842592.02751215-.18847222.07630729l-1.06481482 1.03767535c-.0005324.00051909-.0005324.00103819-.0005324.00103819-.0500463.04931424-.07719908.12769792-.07719908.18272222v10.90104168c0 .1437899.11925926.2595486.26620371.2595486h3.46064816v-2.3359375c0-.1432708.1192592-.2595486.2662037-.2595486h1.5972222c.1469445 0 .2662037.1162778.2662037.2595486v2.3359375h3.4606482c.1469444 0 .2662037-.1157587.2662037-.2595486v-10.90104168c0-.05450521-.02875-.13548437-.0777315-.18272222z" fill="#fff"/></g></svg>