<?xml version="1.0" encoding="utf-8"?>
<!-- Generator: Adobe Illustrator 23.0.1, SVG Export Plug-In . SVG Version: 6.00 Build 0)  -->
<svg version="1.1" id="Layer_1" xmlns="http://www.w3.org/2000/svg" xmlns:xlink="http://www.w3.org/1999/xlink" x="0px" y="0px"
	 viewBox="0 0 23 23" style="enable-background:new 0 0 23 23;" xml:space="preserve">
<style type="text/css">
	.st0{fill-rule:evenodd;clip-rule:evenodd;fill:#00ADEE;}
	.st1{fill:#FFFFFF;}
</style>
<circle class="st0" cx="11.5" cy="11.5" r="11.5"/>
<g>
	<g>
		<path class="st1" d="M9.2,9.1C9,9.3,9,9.5,9.2,9.7l2.2,2.2c0.1,0.1,0.2,0.1,0.3,0.1c0.1,0,0.2,0,0.3-0.1l2.2-2.2
			c0.2-0.2,0.2-0.4,0-0.6C14,9,13.7,9,13.6,9.1l-1.5,1.5V3.5c0-0.2-0.2-0.4-0.4-0.4s-0.4,0.2-0.4,0.4v7.1L9.8,9.1
			C9.6,9,9.4,9,9.2,9.1z"/>
		<path class="st1" d="M18.4,12.5L17,7.3c0-0.1-0.1-0.2-0.2-0.3l0,0c-0.1,0-0.1,0-0.2,0H14c-0.2,0-0.4,0.2-0.4,0.4s0.2,0.4,0.4,0.4
			h2.3l1.2,4.4h-3.2c-0.2,0-0.4,0.2-0.4,0.4V13c0,0.5-0.4,1-1,1h-2.5c-0.5,0-1-0.4-1-1v-0.4c0-0.2-0.2-0.4-0.4-0.4H5.9l1.2-4.4h2.3
			c0.2,0,0.4-0.2,0.4-0.4C9.8,7.2,9.6,7,9.4,7H6.8C6.7,7,6.7,7,6.6,7l0,0C6.5,7.1,6.4,7.2,6.4,7.3l-1.4,5.2c0,0,0,0.1,0,0.1v2.2
			c0,1.6,1.3,3,3,3h7.6c1.6,0,3-1.3,3-3v-2.2C18.4,12.6,18.4,12.5,18.4,12.5z M17.6,14.8c0,1.2-1,2.1-2.1,2.1H7.9
			c-1.2,0-2.1-1-2.1-2.1V13h2.8c0,1,0.8,1.8,1.8,1.8h2.5c1,0,1.8-0.8,1.8-1.8h2.9L17.6,14.8L17.6,14.8z"/>
	</g>
</g>
</svg>
