<svg height="23" viewBox="0 0 23 23" width="23" xmlns="http://www.w3.org/2000/svg"><g fill="none" fill-rule="evenodd"><circle cx="11.5" cy="11.5" fill="#00afee" r="11.5"/><path d="m17.0709821 5-5.5701298 5.570698-5.57069801-5.570698h-.93015429v.93015429l5.570698 5.57069801-5.570698 5.5701298v.9301543h.93015429l5.57069801-5.570698 5.5701298 5.570698h.9290179v-.9307225l-5.5695616-5.5695616 5.5695616-5.5701298v-.9307225zm-3.7200489 0-1.8506491 1.85064907-1.85008086-1.85064907h-1.86030858l3.71038944 3.71038944 3.7109577-3.71038944zm-8.3509332 4.65020324 1.85064907 1.85064906-1.85064907 1.8500809v1.8603086l3.71095765-3.7103895-3.71095765-3.71038943zm9.290747 1.85064906 3.709253 3.709253v-1.8597403l-1.8489444-1.8495127 1.8489444-1.85008085v-1.85974037zm-3.720049 3.7194808-2.78023513 2.7808033h1.86030858l1.85008085-1.8506491 1.8500809 1.8506491h1.8597403l-3.7098212-3.7103894z" fill="#fff"/></g></svg>