<svg height="23" viewBox="0 0 23 23" width="23" xmlns="http://www.w3.org/2000/svg"><g fill="none" fill-rule="evenodd"><circle cx="11.5" cy="11.5" fill="#00adee" r="11.5"/><path d="m7.6442511 11.0344473c.47428475.0041839.86311248-.3688843.85962586-.82469-.00331229-.43342154-.3911289-.82727-.82134279-.83413864-.46159346-.00735677-.84968899.37819354-.84724836.84166974.00244063.4590483.35295042.8131493.80896529.8171589m5.6240207-2.76565577c-.4731342-.00104599-.8391594.3709065-.8322908.84571425.00652.44796078.3795533.8272003.813742.8272003.4535742.00003487.8500376-.40298339.8422973-.85613924-.0076356-.44719372-.3794138-.81579906-.8237485-.81677531m-4.93349585 5.04029097c-.00916981-.4305974-.41006124-.8306521-.83079152-.8289436-.4592923.0018479-.85185071.4002987-.84337822.8561392.00868168.4665794.39743967.8299548.8690746.8123473.44339331-.0165265.81436954-.4034018.80509514-.8395429m1.83720405-5.75616354c-.47519129-.00522993-.84749244.36361947-.84282037.83497546.004428.44785619.37449772.82716544.81210327.83232564.4432887.00526479.8637052-.41142102.8566622-.84909627-.0071476-.44349791-.3804598-.81332357-.8259451-.81820483m6.1362398 1.72563223c-1.4258876 1.93646811-2.7661787 3.87760821-3.6497925 6.09579511 1.7396136-1.6648954 3.0644241-3.6370664 4.3158065-5.68022502-.2315813-.14452034-.4297955-.26815585-.666014-.41557009m-5.3117885 5.02784101c.0091349.4758189-.0042188.9929193-.1765972 1.4237956-.5613457 1.4032595-1.5070244 1.7377084-2.76231408 1.4216716s-2.2085638-1.7056888-2.69798048-3.0880983c-1.27334804-3.5966216.96021482-7.42559145 4.73298036-7.9897961 2.2386185-.33478513 4.1051101.47731811 5.5531726 2.22509038.0637703.07698454.1238099.15703731.2465389.31323783-.0221052-.80900016.4449622-1.19113358 1.0163493-1.47993021.5582426-.28213719 1.1281653-.5410535 1.7480861-.83643985.2541396.28238126.2970599.73013284.3304966 1.16100919.072173.93075289-.1436487 1.73780054-1.0664521 2.20256682-.1200094.06045797-.2159263.19769129-.2876461.32003674-.3776008.6439785-3.7291828 5.1839397-4.1918571 5.6849319-.1893583.2050829-.4037853.4132341-.649313.532337-.2163099.1049472-.5793715.2020844-.7188362.0953241-.1704608-.130539-.2855192-.5053156-.2297333-.7250423.1332585-.5252243.3756831-1.0235318.5846013-1.5283594.0836092-.2021541.1948323-.3929419.3156088-.6328213-.8233302-.1458801-1.7618877.1322447-1.7471044.9004863z" fill="#fff"/></g></svg>